<?xml version="1.0" standalone="no"?>
<!DOCTYPE svg PUBLIC "-//W3C//DTD SVG 20010904//EN"
 "http://www.w3.org/TR/2001/REC-SVG-20010904/DTD/svg10.dtd">
<svg version="1.0" xmlns="http://www.w3.org/2000/svg"
 width="256.000000pt" height="256.000000pt" viewBox="0 0 256.000000 256.000000"
 preserveAspectRatio="xMidYMid meet">
<metadata>
Created by potrace 1.11, written by Peter Selinger 2001-2013
</metadata>
<g transform="translate(0.000000,256.000000) scale(0.100000,-0.100000)"
fill="#000000" stroke="none">
<path d="M1095 2543 c-533 -88 -940 -473 -1058 -998 -20 -89 -25 -138 -25
-255 0 -80 4 -167 9 -195 5 -27 12 -65 15 -84 18 -110 114 -334 191 -444 249
-360 628 -560 1058 -561 365 0 721 161 955 432 30 35 60 69 65 75 47 53 140
229 179 334 52 146 68 246 71 428 7 596 -403 1114 -990 1250 -128 30 -348 38
-470 18z m380 -203 c362 -73 661 -312 802 -643 58 -136 78 -245 78 -417 0
-174 -19 -270 -82 -420 -162 -382 -542 -643 -952 -653 -199 -5 -355 29 -516
111 -195 100 -368 266 -464 444 -64 120 -111 262 -126 378 -31 240 30 510 162
718 60 94 200 243 273 290 14 9 30 22 37 28 20 19 185 101 248 122 50 18 118
33 240 55 42 7 243 -1 300 -13z"/>
<path d="M805 1659 c-48 -24 -81 -58 -101 -104 -16 -39 -19 -131 -4 -140 6 -4
8 -10 5 -15 -11 -18 81 -98 125 -110 166 -45 305 126 228 280 -46 91 -164 132
-253 89z"/>
<path d="M1625 1670 c-44 -14 -103 -67 -121 -108 -18 -41 -21 -114 -6 -153 27
-69 98 -120 174 -124 176 -10 277 205 154 328 -53 53 -137 77 -201 57z"/>
<path d="M604 920 c144 -165 308 -263 511 -305 77 -16 232 -22 285 -11 14 3
50 11 80 17 121 25 283 106 371 185 59 53 139 137 139 146 0 4 -22 -6 -49 -22
-80 -50 -231 -116 -316 -140 -129 -36 -228 -48 -374 -45 -226 5 -417 62 -636
190 l-50 29 39 -44z"/>
</g>
</svg>
