<?xml version="1.0" standalone="no"?>
<!DOCTYPE svg PUBLIC "-//W3C//DTD SVG 20010904//EN"
 "http://www.w3.org/TR/2001/REC-SVG-20010904/DTD/svg10.dtd">
<svg version="1.0" xmlns="http://www.w3.org/2000/svg"
 width="256.000000pt" height="256.000000pt" viewBox="0 0 256.000000 256.000000"
 preserveAspectRatio="xMidYMid meet">
<metadata>
Created by potrace 1.11, written by Peter Selinger 2001-2013
</metadata>
<g transform="translate(0.000000,256.000000) scale(0.100000,-0.100000)"
fill="#000000" stroke="none">
<path d="M1528 1985 c-25 -14 -40 -34 -86 -115 -11 -19 -53 -94 -94 -166 -41
-71 -77 -137 -81 -145 -4 -8 -17 -30 -28 -49 -12 -19 -118 -204 -235 -412
-228 -401 -234 -416 -197 -478 20 -34 49 -51 94 -55 65 -5 92 20 166 155 16
30 42 74 56 97 15 24 27 44 27 47 0 2 50 91 111 197 61 107 125 219 142 249
16 30 56 100 87 155 32 55 71 125 88 155 17 30 51 91 76 135 25 44 47 87 47
97 3 36 2 44 -5 71 -17 57 -113 92 -168 62z"/>
<path d="M425 1736 c-35 -16 -382 -374 -407 -420 -19 -35 -15 -87 9 -125 9
-14 62 -72 118 -130 57 -58 136 -141 176 -183 83 -86 117 -108 161 -102 87 10
139 106 99 181 -9 17 -73 90 -143 163 -71 73 -128 137 -128 142 0 6 48 60 108
120 59 61 117 121 130 134 68 70 57 180 -22 218 -41 19 -61 20 -101 2z"/>
<path d="M2033 1734 c-53 -26 -69 -62 -64 -146 1 -20 32 -60 124 -154 67 -70
130 -135 140 -143 9 -8 17 -21 17 -27 0 -6 -57 -71 -127 -144 -137 -142 -148
-156 -156 -209 -14 -85 81 -160 163 -129 14 5 60 46 104 91 43 45 124 130 181
188 116 120 131 141 138 187 8 52 -25 97 -217 296 -204 211 -229 226 -303 190z"/>
</g>
</svg>
