<?xml version="1.0" encoding="utf-8"?>
<!-- Generator: Adobe Illustrator 22.1.0, SVG Export Plug-In . SVG Version: 6.00 Build 0)  -->
<svg version="1.1" xmlns="http://www.w3.org/2000/svg" xmlns:xlink="http://www.w3.org/1999/xlink" x="0px" y="0px"
	 viewBox="0 0 2850 1800" enable-background="new 0 0 2850 1800" xml:space="preserve">
<g id="Layer_1_1_">
	<polygon fill="#FFFFFF" points="1008.035,0 0,0 0,1800 1008.035,1800 2850,1800 2850,0 	"/>
	<polygon fill="#DEDEDE" points="1008.035,1343.277 0,1343.277 0,1800 1008.035,1800 2850,1800 2850,1343.277 	"/>
</g>
<g id="Layer_4">
	<g>
		
			<line fill="none" stroke="#05B0B7" stroke-width="2.6722" stroke-miterlimit="10" x1="1035.222" y1="0" x2="1035.222" y2="294.073"/>
		<path fill="#00466C" d="M1134.889,390.674c-1.05-54.162-45.254-97.753-99.668-97.753c-54.414,0-98.617,43.591-99.668,97.753
			H1134.889z"/>
		<path fill="#FFF6A0" stroke="#00466C" stroke-width="2" stroke-miterlimit="10" d="M1006.883,390.411
			c4.541,9.368,14.113,15.844,25.222,15.844c11.109,0,20.681-6.476,25.222-15.844H1006.883z"/>
	</g>
	<g>
		
			<line fill="none" stroke="#05B0B7" stroke-width="2.6722" stroke-miterlimit="10" x1="1849.227" y1="0.764" x2="1849.227" y2="294.837"/>
		<path fill="#00466C" d="M1948.894,391.438c-1.05-54.162-45.254-97.753-99.668-97.753s-98.617,43.591-99.668,97.753H1948.894z"/>
		<path fill="#FFF6A0" stroke="#00466C" stroke-width="2" stroke-miterlimit="10" d="M1820.888,391.175
			c4.541,9.368,14.113,15.844,25.222,15.844c11.109,0,20.681-6.476,25.222-15.844H1820.888z"/>
	</g>
	<g>
		<circle fill="none" stroke="#05B0B7" stroke-width="2.6497" stroke-miterlimit="10" cx="1447.784" cy="469.307" r="83.426"/>
		<polyline fill="none" stroke="#05B0B7" stroke-width="2.6497" stroke-miterlimit="10" points="1450.873,433.773 1450.873,469.307 
			1503.401,469.307 		"/>
	</g>
	<g>
		<rect x="235.599" y="1484.5" fill="#3294B6" width="183.876" height="49.993"/>
		<g>
			<g>
				<path fill="#6BD49C" d="M304.69,1455.49c-27.818-30.019-78.432-89.071-99.022-124.619l40.315-10.46
					c-16.697-1.894-48.9-8.935-48.749-8.043c-4.087-11.585-7.327-23.479-9.685-35.551c0,0,16.071-6.061,22.985-7.917
					c0,0-19.508-9.09-26.385-12.241c-4.65-15.604-8.087-31.582-10.268-47.736l0.525,0.915
					c22.287,19.496,81.95,28.708,128.991,219.795L304.69,1455.49z"/>
			</g>
			
				<path fill="none" stroke="#5DB888" stroke-width="1.3342" stroke-linecap="round" stroke-linejoin="round" stroke-miterlimit="10" d="
				M179.801,1215.802c41.183,27.83,96.019,81.996,129.675,268.698"/>
		</g>
		<g>
			<path fill="#6BD49C" d="M330.968,1262.602c11.429-23.856,35.452-76.174,42.606-101.697c4.074-14.535,7.455-29.754,5.049-44.669
				l-0.227-3.821c-4.445-2.131-9.105-3.797-13.883-4.966l1.862-4.084c7.406-2.261,14.812-4.522,22.218-6.783l-1.739,2.809
				c13.335-21.355,23.521-44.743,30.114-69.141l-2.39-2.155c-7.404-0.872-14.862-1.275-22.316-1.204l5.663-3.051
				c5.37-5.644,14.479-7.197,18.323-14.01c1.87-3.314,2.108-7.291,2.301-11.107c0.55-10.855,1.1-21.709,1.649-32.564l-0.913,0.101
				c-50.488,43.422-92.017,115.331-107.657,180.698L330.968,1262.602z"/>
		</g>
		<g>
			<path fill="#6BD49C" d="M329.802,1268.096c20.894-49.324,45.201-106.35,85.3-141.867c-0.251,25.994-7.087,89.573-7.087,89.573
				l-18.267,6.344l14.764,13.953l-39.298,120.949l-6.618,14.471l-13.858,6.135l3.924,11.401c0,0-30.531,23.088-34.602,39.373
				c-2.002-47.735,2.193-95.727,12.444-142.392L329.802,1268.096z"/>
		</g>
		
			<path fill="none" stroke="#5DB888" stroke-width="1.3342" stroke-linecap="round" stroke-linejoin="round" stroke-miterlimit="10" d="
			M404.511,1145.043c-35.569,77.466-53.312,159.315-67.723,242.045c-5.559,31.912-11.138,64.089-10.16,96.467"/>
		<g>
			<path fill="#73E4A8" d="M312.524,1416.477c-45.948-50.621-75.037-116.822-81.477-185.427c12.988-1.458,26.285,0.004,38.668,4.251
				c-7.985-15.9-29.484-21.837-35.606-38.571c-2.199-6.011-2.039-12.613-1.781-19.022c0.611-15.201,1.61-30.385,2.995-45.533
				c11.833,3.742,23.666,7.484,35.499,11.226c-12.27-4.18-21.017-15.795-25.001-28.325c-3.984-12.53-3.88-25.991-3.251-39.145
				c1.019-21.313,3.314-42.563,6.869-63.593l0.103,1.431c43.14,48.761,64.582,113.612,76.379,178.121
				c14.216,77.736,10.438,154.775-11.504,230.626L312.524,1416.477z"/>
		</g>
		<path fill="none" stroke="#5DB888" stroke-width="1.3342" stroke-miterlimit="10" d="M260.244,1055.645
			c25.457,80.473,41.442,164.046,47.506,248.362c1.436,19.969,2.318,39.974,3.2,59.976c1.805,40.938,3.609,81.876,5.414,122.814"/>
		<g>
			<path fill="#73E4A8" d="M484.576,1137.281c-19.603,14.589-81.392,78.522-81.392,78.522l10.169,17.828l-17.109-3.064
				l-20.731,95.155c0,0-9.168-20.012-11.245-30.812c-9.343,41.655-12.1,84.833-8.135,127.37l1.72,0.238
				c31.353-23.237,74.755-89.317,74.755-89.317l-25.994-14.787l37.137-14.339l28.362-73.014l-15.945-4.795l26.155-20.42
				L484.576,1137.281z"/>
		</g>
		
			<path fill="none" stroke="#5DB888" stroke-width="1.3342" stroke-linecap="round" stroke-linejoin="round" stroke-miterlimit="10" d="
			M476.695,1151.831c-63.165,103.534-112.775,218.036-137.242,336.823"/>
		<polygon fill="#3294B6" points="250.563,1533.705 261.382,1639.98 390.246,1639.98 404.511,1533.705 403.65,1533.705 		"/>
		<polygon fill="#2C3941" points="250.563,1533.705 255.092,1578.191 403.65,1533.705 		"/>
	</g>
	<polygon fill="none" stroke="#05B0B7" stroke-width="2.6497" stroke-miterlimit="10" points="2647.773,432.688 2311.682,432.688 
		2311.682,905.853 2677.262,905.853 2677.262,432.688 	"/>
	<rect x="2378.727" y="513.436" fill="#05B0B7" width="231.491" height="12.701"/>
	<path fill="#05B0B7" d="M2627.425,593.458h-270.842c-1.754,0-3.175-1.422-3.175-3.175l0,0c0-1.754,1.422-3.175,3.175-3.175h270.842
		c1.754,0,3.175,1.422,3.175,3.175l0,0C2630.6,592.037,2629.179,593.458,2627.425,593.458z"/>
	<path fill="#05B0B7" d="M2627.425,612.862h-270.842c-1.754,0-3.175-1.422-3.175-3.175l0,0c0-1.754,1.422-3.175,3.175-3.175h270.842
		c1.754,0,3.175,1.422,3.175,3.175l0,0C2630.6,611.441,2629.179,612.862,2627.425,612.862z"/>
	<path fill="#05B0B7" d="M2627.425,632.266h-270.842c-1.754,0-3.175-1.422-3.175-3.175l0,0c0-1.754,1.422-3.175,3.175-3.175h270.842
		c1.754,0,3.175,1.422,3.175,3.175l0,0C2630.6,630.845,2629.179,632.266,2627.425,632.266z"/>
	<path fill="#05B0B7" d="M2627.425,760.164h-270.842c-1.754,0-3.175-1.422-3.175-3.175v0c0-1.754,1.422-3.175,3.175-3.175h270.842
		c1.754,0,3.175,1.422,3.175,3.175v0C2630.6,758.743,2629.179,760.164,2627.425,760.164z"/>
	<path fill="#05B0B7" d="M2627.425,798.972h-270.842c-1.754,0-3.175-1.422-3.175-3.175l0,0c0-1.754,1.422-3.175,3.175-3.175h270.842
		c1.754,0,3.175,1.422,3.175,3.175l0,0C2630.6,797.551,2629.179,798.972,2627.425,798.972z"/>
	<g>
		<g>
			<ellipse opacity="0.1" cx="2230.127" cy="1610.201" rx="185.293" ry="15.421"/>
			<path fill="#DDF1FD" d="M2186.184,816.295l-37.714,75.266c-8.433,16.829-32.15,17.647-41.722,1.439l0,0
				c-3.419-5.789-4.226-12.756-2.222-19.174l53.112-168.379"/>
			<path opacity="0.1" d="M2137.892,892.43l18.772-47.278l0.973-139.705l28.547,110.848l-37.714,75.266
				c-4.937,9.853-15.113,14.208-24.622,12.881C2129.62,902.635,2134.791,898.62,2137.892,892.43z"/>
			<path fill="#DDF1FD" d="M2103.499,888.363l86.904,127.797l27.699-7.68c0,0-69.878-168.054-95.844-181.488"/>
		</g>
		<polygon fill="#3294B6" points="2157.637,924.429 2129.797,1257.997 2145.285,1581.466 2195.073,1581.311 2208.931,1265.224 
			2274.025,929.159 		"/>
		<polygon opacity="0.1" fill="#231F20" points="2179.345,1581.311 2193.204,1265.224 2221.17,1011.462 2237.113,1119.728 
			2208.931,1265.224 2195.073,1581.311 		"/>
		<polyline fill="#3294B6" points="2221.17,1011.462 2292.06,1591.225 2345.989,1591.225 2337.843,988.573 2320.619,924.429 		"/>
		<polygon fill="#3294B6" points="2201.911,1011.462 2157.637,924.429 2320.619,924.429 2337.843,988.573 2338.186,1011.155 		"/>
		<rect x="2156.102" y="903.873" fill="#002D4C" width="166.433" height="20.557"/>
		<polygon fill="#DDF1FD" points="2157.637,705.463 2157.637,903.873 2320.069,903.873 2364.578,719.468 2277.242,686.255 
			2211.704,686.255 		"/>
		<polygon opacity="0.1" points="2327.047,798.972 2340.985,817.215 2320.069,903.873 		"/>
		<polygon fill="#C5573C" points="2219.528,738.106 2224.991,733.527 2228.282,739.608 2225.645,880.254 2212.365,896.305 
			2202.174,879.051 		"/>
		<path fill="#FCC690" d="M2208.517,513.934c-17.839-3.257-37.303,9.827-37.303,28.58c0,28.231,0,67.514,0,92.942
			c0,16.229,9.501,22.2,26.943,22.2h87.396V530.211L2208.517,513.934z"/>
		<path fill="#48566D" d="M2260.577,613.74v24.818c0,10.406-8.329,19.05-18.736,19.097c-0.068,0-0.135,0-0.203,0h-43.48
			c-17.442,0-26.943-5.971-26.943-22.2V613.74H2260.577z"/>
		<path fill="#FFFFFF" d="M2203.424,622.035c-0.872,6.903-6.752,12.245-13.891,12.245c-7.139,0-13.019-5.342-13.892-12.245H2203.424
			z"/>
		<g>
			<path fill="#48566D" d="M2201.201,581.448c0,2.434,1.973,4.407,4.407,4.407c2.434,0,4.407-1.973,4.407-4.407
				c0-2.434-1.973-4.407-4.407-4.407C2203.174,577.041,2201.201,579.014,2201.201,581.448z"/>
			<path fill="#48566D" d="M2171.234,581.448c0,2.434,1.973,4.407,4.407,4.407s4.407-1.973,4.407-4.407
				c0-2.434-1.973-4.407-4.407-4.407S2171.234,579.014,2171.234,581.448z"/>
		</g>
		
			<line fill="none" stroke="#48566D" stroke-width="7.2513" stroke-linejoin="round" stroke-miterlimit="10" x1="2187.838" y1="561.156" x2="2168.416" y2="562.603"/>
		
			<line fill="none" stroke="#48566D" stroke-width="7.2513" stroke-linejoin="round" stroke-miterlimit="10" x1="2229.92" y1="562.918" x2="2201.673" y2="560.841"/>
		<polyline fill="#FCC690" points="2208.465,656.974 2208.465,687.406 2224.991,733.527 2285.553,689.416 2285.553,657.656 		"/>
		<polygon opacity="0.1" points="2208.591,680.885 2228.384,657.656 2208.557,657.656 		"/>
		<g>
			<polygon fill="#FDC78B" points="2280.383,983.622 2313.392,1014.242 2338.186,983.87 2390.888,946.933 2366.681,921.575 
				2312.804,967.946 2300.567,967.909 			"/>
		</g>
		<path fill="#DDF1FD" d="M2364.578,719.468l101.174,154.26c6.261,9.546,3.936,22.325-5.285,29.054l-120.155,87.682l-31.21-26.527
			l88.656-80.099l-56.772-66.623"/>
		<g>
			<path fill="#48566D" d="M2150.339,1581.388l-56.022,11.977c-3.654,0.781-6.443,3.743-7.003,7.438l-1.061,6.996h61.997
				l19.08-7.503v7.503h25.122v-26.412"/>
			
				<rect x="2167.33" y="1600.297" transform="matrix(-1 -4.489266e-11 4.489266e-11 -1 4359.7812 3208.0967)" fill="#202939" width="25.122" height="7.503"/>
			<polygon fill="#202939" points="2086.986,1602.968 2148.25,1602.968 2167.33,1600.297 2148.25,1607.8 2086.253,1607.8 			"/>
		</g>
		<g>
			<path fill="#48566D" d="M2352.239,1602.923c0,0-6.019-17.487-34.33-17.487c-27.196,0-33.986,17.487-33.986,17.487v7.278h68.316
				V1602.923z"/>
			
				<rect x="2283.923" y="1602.923" transform="matrix(-1 -4.489177e-11 4.489177e-11 -1 4636.1621 3213.1243)" fill="#202939" width="68.316" height="7.278"/>
		</g>
		<g>
			<g>
				<path fill="#22708A" d="M2212.67,938.03c-2.28,9.648-1.382,20.69-1.312,30.512c0.056,7.851,0.267,15.733,1.116,23.543
					c0.223,2.052,0.107,5.001,1.424,6.611c1.498,1.832,5.816,3.23,7.938,4.164c2.329,1.024,4.702,1.934,7.098,2.789
					c2.109,0.753,3.055-2.65,0.927-3.363c-2.705-0.906-5.37-1.89-7.99-3.022c-2.066-0.892-5.206-1.657-6.173-3.701
					c-1.237-2.615-0.942-7.199-1.183-10.092c-0.613-7.345-0.85-14.721-0.945-22.09c-0.107-8.344,0.807-17.066-0.327-25.35
					C2213.202,937.732,2212.734,937.761,2212.67,938.03L2212.67,938.03z"/>
			</g>
		</g>
		<rect x="2168.347" y="901.987" fill="#3294B6" width="8.022" height="22.442"/>
		<rect x="2255.53" y="901.987" fill="#3294B6" width="8.022" height="22.442"/>
		<rect x="2303.66" y="901.987" fill="#3294B6" width="8.022" height="22.442"/>
		<rect x="2196.958" y="903.873" fill="#FFFFFF" width="30.75" height="20.557"/>
		<g>
			<g>
				<g>
					<path opacity="0.27" fill="#9EDCF8" d="M2172.574,589.865c7.048,0,11.918-1.087,12.589-1.837
						c1.955-2.434,5.794-13.719,3.822-16.986c-0.53-0.878-4.256-2.267-11.99-2.267c-6.57,0-12.644,1.045-14.54,2.496
						c-1.005,1.891-0.574,15.367,0.565,17.185c0.44,0.536,3.432,1.41,9.552,1.41
						C2172.573,589.865,2172.573,589.865,2172.574,589.865z"/>
					<path fill="#48566D" d="M2161.791,570.27c4.3-3.495,25.688-3.905,28.075,0.047c1.483,2.452,0.573,7.652-0.853,12.044
						l-1.16-0.122c1.375-4.131,2.339-9.104,1.134-11.098c-0.531-0.878-4.254-2.269-11.988-2.269c-6.57,0-12.646,1.047-14.54,2.496
						c-0.482,0.908-0.632,4.478-0.533,8.151l-0.963-0.102C2160.618,574.265,2160.786,571.085,2161.791,570.27z"/>
					<path opacity="0.27" fill="#9EDCF8" d="M2217.279,590.504c-8.785,0-14.857-1.089-15.693-1.837
						c-2.435-2.436-7.222-13.72-4.761-16.987c0.66-0.876,5.301-2.269,14.942-2.269c8.189,0,15.76,1.046,18.123,2.498
						c1.252,1.889,0.715,15.365-0.703,17.184c-0.549,0.538-4.278,1.411-11.906,1.411
						C2217.28,590.504,2217.28,590.504,2217.279,590.504z"/>
					<path fill="none" stroke="#48566D" stroke-miterlimit="10" d="M2172.574,589.865c7.048,0,11.918-1.087,12.589-1.837
						c1.955-2.434,5.794-13.719,3.822-16.986c-0.53-0.878-4.256-2.267-11.99-2.267c-6.57,0-12.644,1.045-14.54,2.496
						c-1.005,1.891-0.574,15.367,0.565,17.185c0.44,0.536,3.432,1.41,9.552,1.41
						C2172.573,589.865,2172.573,589.865,2172.574,589.865z"/>
					<path fill="none" stroke="#48566D" stroke-miterlimit="10" d="M2217.279,590.504c-8.785,0-14.857-1.089-15.693-1.837
						c-2.435-2.436-7.222-13.72-4.761-16.987c0.66-0.876,5.301-2.269,14.942-2.269c8.189,0,15.76,1.046,18.123,2.498
						c1.252,1.889,0.715,15.365-0.703,17.184c-0.549,0.538-4.278,1.411-11.906,1.411
						C2217.28,590.504,2217.28,590.504,2217.279,590.504z"/>
					<path fill="#48566D" d="M2230.717,570.908c-5.36-3.497-32.016-3.904-34.993,0.047c-1.847,2.45-0.712,7.652,1.066,12.044
						l1.446-0.122c-1.718-4.131-2.916-9.104-1.416-11.097c0.662-0.879,5.304-2.27,14.942-2.27c8.189,0,15.763,1.048,18.124,2.495
						c0.6,0.909,0.786,4.479,0.662,8.152l1.204-0.103C2232.181,574.903,2231.973,571.725,2230.717,570.908z"/>
					<path fill="#48566D" d="M2234.701,577.58c0,0.666-0.538,1.202-1.202,1.202h-1.703c-0.666,0-1.206-0.536-1.206-1.202l0,0
						c0-0.666,0.54-1.205,1.206-1.205h1.703C2234.163,576.375,2234.701,576.915,2234.701,577.58L2234.701,577.58z"/>
					<path fill="#48566D" d="M2192.392,572.511h0.068c1.013,0,2.083,0.168,2.921,0.666v1.478c-0.792-0.436-1.908-0.667-2.921-0.667
						h-0.068c-0.923,0-1.823,0.208-2.674,0.612v-1.478C2190.492,572.762,2191.47,572.511,2192.392,572.511z"/>
				</g>
			</g>
		</g>
		<g>
			<path fill="#FCC690" d="M2191.435,575.455c-0.955,8.137-9.2,25.79-9.19,27.534c0.009,1.405,9.517,6.069,15.505,1.693"/>
			<path fill="#E09E5E" d="M2191.435,575.455c-0.134,3.871-1.197,7.646-2.323,11.313c-1.137,3.682-2.523,7.268-3.91,10.833
				l-1.057,2.656c-0.34,0.859-0.696,1.827-0.904,2.543c-0.013,0.06-0.032,0.119-0.056,0.18c0.015-0.036-0.027-0.174-0.034-0.178
				c0.006-0.006-0.022-0.03-0.008-0.011c0.025,0.058,0.173,0.205,0.306,0.323c0.293,0.253,0.667,0.496,1.049,0.715
				c0.772,0.436,1.608,0.816,2.465,1.135c1.722,0.614,3.547,1.024,5.393,1.035c1.842,0.035,3.715-0.362,5.395-1.316
				c-1.42,1.323-3.371,2.057-5.34,2.296c-1.983,0.228-4,0.009-5.923-0.528c-0.966-0.265-1.911-0.61-2.825-1.081
				c-0.459-0.237-0.909-0.491-1.361-0.839c-0.229-0.192-0.452-0.357-0.697-0.697c-0.059-0.076-0.129-0.214-0.182-0.324
				c-0.057-0.112-0.11-0.374-0.114-0.525c0.018-0.175,0.042-0.352,0.07-0.527c0.028-0.196,0.065-0.316,0.1-0.435l0.11-0.37
				c0.072-0.252,0.153-0.485,0.234-0.713c0.161-0.464,0.323-0.925,0.494-1.374l1.025-2.697l4.304-10.621
				C2189.041,582.696,2190.484,579.179,2191.435,575.455z"/>
		</g>
		
			<polyline fill="none" stroke="#49566D" stroke-width="2" stroke-linecap="round" stroke-linejoin="round" stroke-miterlimit="10" points="
			2232.523,735.325 2262.211,742.421 2278.742,720.98 		"/>
		
			<polyline fill="none" stroke="#49566D" stroke-width="2" stroke-linecap="round" stroke-linejoin="round" stroke-miterlimit="10" points="
			2200.034,714.877 2195.382,736.955 2217.455,734.4 		"/>
		<g>
			<path fill="#48566D" d="M2264.68,499.906c18.175,5.638,16.972,12.486,15.592,16.831c5.308-2.753,8.059-1.946,13.186,3.226
				c17.284,17.432-6.328,53.62-7.905,97.349h-16.792v-32.846h-8.185v29.274h-9.852v-70.422
				c-16.564,3.172-93.616,6.655-97.599-34.431C2149.372,469.983,2230.781,489.39,2264.68,499.906z"/>
		</g>
		<path fill="#FCC690" d="M2260.577,572.589c0.19-0.005,0.375-0.029,0.566-0.029c11.542,0,20.898,9.356,20.898,20.898
			c0,11.542-9.356,20.898-20.898,20.898c-0.191,0-0.376-0.024-0.566-0.029"/>
		<g>
			<g>
				<path fill="#22708A" d="M2276.447,974.944c4.323,9.464,12.591,18.029,19.805,25.368c7.531,7.662,15.774,14.847,24.932,20.502
					c1.104,0.682,1.977-0.959,0.992-1.698c-8.728-6.55-17.295-13.165-25.016-20.907c-7.372-7.392-13.075-16.13-20.219-23.648
					C2276.68,974.286,2276.306,974.635,2276.447,974.944L2276.447,974.944z"/>
			</g>
		</g>
		<g>
			<path fill="#FDC78B" d="M2300.567,967.909c-8.37,5.206-17.516,9.161-27.042,11.696c-0.425,0.113-0.864,0.23-1.21,0.501
				c-0.535,0.419-0.747,1.124-0.871,1.793c-0.49,2.64,0.202,5.796,2.559,7.082c1.168,0.637,2.558,0.715,3.886,0.646
				c5.387-0.28,10.399-2.704,15.242-5.082"/>
		</g>
	</g>
	<g>
		<ellipse opacity="0.1" cx="1140.117" cy="1542.569" rx="106.748" ry="15.076"/>
		<g>
			<g>
				<g>
					<path fill="#FCC690" d="M1330.978,796.64l5.042-18.075l22.634-14.805l2.121,4.252l5.22-2.772l5.522,5.953l2.347,24.91
						c0.229,2.432-1.171,4.724-3.439,5.63l-21.06,9.952l-7.386,6.53l-16.68-16.368L1330.978,796.64z"/>
				</g>
				<path fill="#FCC690" d="M1370.414,773.173l12.548-10.612c2.802-2.369,3.442-6.434,1.506-9.551l0,0
					c-0.712-1.145-2.251-1.435-3.33-0.627l-21.247,15.903"/>
			</g>
			<g>
				<path fill="#FCC690" d="M1360.979,767.745c0.382,1.494,0.763,2.987,1.145,4.481"/>
			</g>
			<g>
				<path fill="#E09E5E" d="M1342.399,800.267c3.38-1.928,6.378-4.527,8.768-7.597c1.186-1.488,2.129-3.291,1.408-5.011
					c-0.703-1.778-1.572-3.581-2.472-5.311c-0.105-0.201-0.046-0.444,0.127-0.577c2.187-1.686,4.314-3.45,6.337-5.323
					c1.012-0.936,2-1.898,2.952-2.892c0.924-1.01,1.989-1.972,2.439-3.113l0.001-0.002l0.036,0.404l-1.486-3.116
					c-0.027-0.057-0.003-0.125,0.054-0.152c0.05-0.024,0.109-0.008,0.141,0.034l2.077,2.757c0.083,0.11,0.097,0.25,0.05,0.369
					l-0.014,0.035l-0.001,0.003c-0.282,0.726-0.738,1.333-1.204,1.873c-0.472,0.537-0.943,1.038-1.429,1.545
					c-0.966,1.009-1.966,1.984-2.991,2.93c-2.048,1.896-4.195,3.677-6.401,5.377l0.127-0.577c0.92,1.776,1.775,3.536,2.525,5.433
					c0.392,0.982,0.396,2.211,0.015,3.203c-0.359,1.013-0.948,1.877-1.564,2.675c-2.465,3.167-5.553,5.843-9.038,7.832
					c-0.22,0.126-0.501,0.049-0.626-0.171C1342.102,800.673,1342.178,800.393,1342.399,800.267L1342.399,800.267z"/>
			</g>
			<g>
				<g>
					<path fill="#E09E5E" d="M1371.629,772.448c-2.378,0.76-4.645,2.495-6.774,3.755c-3.422,2.024-6.835,4.061-10.247,6.102
						c-0.52,0.311-1.802,0.769-2.146,1.287c-0.707,1.065,0.924,4.018,1.278,5.088c1.933,5.851,4.252,12.415,9.977,15.565
						c0.292,0.16,0.522-0.254,0.257-0.44c-5.936-4.171-8.084-10.727-10.288-17.325c-0.533-1.597-1.382-2.063-0.012-2.905
						c1.073-0.66,2.148-1.317,3.222-1.975c4.91-3.005,10.037-5.795,14.764-9.081
						C1371.694,772.496,1371.674,772.434,1371.629,772.448L1371.629,772.448z"/>
				</g>
			</g>
		</g>
	</g>
	<path fill="#00466C" d="M1175,718.217h-31.628c-54.899,0-99.421-44.473-99.48-99.372l-0.011-10.308
		c0-35.416,28.711-64.127,64.127-64.127h2.865c35.416,0,64.127,28.711,64.127,64.127V718.217z"/>
	
		<line fill="none" stroke="#2D86A5" stroke-width="43.2043" stroke-linecap="round" stroke-miterlimit="10" x1="1165.717" y1="759.045" x2="1214.128" y2="893.083"/>
	<g>
		<polygon fill="#FDC88B" points="1216.62,889.911 1330.1,798.871 1344.154,815.277 1236.777,913.441 		"/>
	</g>
	<path fill="#1D667E" d="M1197.015,909.712l34.042-47.349l7.196,8.842l-0.068,45.414
		C1238.186,916.618,1214.025,924.997,1197.015,909.712z"/>
	<path fill="#3294B6" d="M1172.59,743.835c-5.206-5.052-12.168-7.886-19.423-7.884l-104.985,0.027
		c-13.008,0.115-21.827,14.454-16.658,26.392l68.101,157.289h100.359l3.093-83.941c0,0,20.557-4.283,17.131-28.266
		C1217.642,789.501,1187.56,758.362,1172.59,743.835z"/>
	
		<line fill="none" stroke="#3294B6" stroke-width="43.2043" stroke-linecap="round" stroke-miterlimit="10" x1="1046.038" y1="761.094" x2="951.14" y2="863.621"/>
	<g>
		<polygon fill="#FDC88B" points="954.871,859.228 1084.72,924.841 1075.605,944.426 941.796,887.317 		"/>
	</g>
	<polygon fill="#FDC78B" points="1097.032,735.948 1155.461,772.542 1145.085,735.948 1145.085,694.978 1097.032,694.978 	"/>
	<polygon opacity="0.1" points="1117.707,694.602 1145.085,713.752 1145.085,694.602 	"/>
	<path fill="#FDC78B" d="M1132.299,702.712L1132.299,702.712c-32.14,0-58.195-26.055-58.195-58.195v-32.539
		c0-32.14,26.055-58.195,58.195-58.195h0c32.14,0,58.195,26.055,58.195,58.195v32.539
		C1190.494,676.657,1164.439,702.712,1132.299,702.712z"/>
	<g>
		<path fill="#00233F" d="M1178.758,629.424L1178.758,629.424c2.024-0.028,3.641-1.692,3.613-3.716l-0.042-1.555
			c-0.028-2.024-1.692-3.641-3.716-3.613l0,0c-2.024,0.028-3.641,1.692-3.613,3.716l0.042,1.555
			C1175.071,627.834,1176.734,629.452,1178.758,629.424z"/>
		<path fill="#00233F" d="M1142.757,629.424L1142.757,629.424c2.024-0.028,3.642-1.692,3.613-3.716l-0.042-1.555
			c-0.028-2.024-1.692-3.641-3.716-3.613l0,0c-2.024,0.028-3.641,1.692-3.613,3.716l0.042,1.555
			C1139.069,627.834,1140.733,629.452,1142.757,629.424z"/>
	</g>
	<path fill="#00466C" d="M1120.35,535.026L1120.35,535.026c-42.233,0-76.47,34.237-76.47,76.47v28.638v22.875
		c0,30.438,30.317,55.112,60.755,55.112V616.137c26.272-4.584,59.63-17.868,83.44-39.971c0,0-5.075-8.653-10.8-15.717
		C1163.275,544.847,1142.963,535.026,1120.35,535.026z"/>
	<path fill="#FFFFFF" d="M1141.966,655.12c1.686,7.574,8.435,13.241,16.517,13.241c8.082,0,14.831-5.667,16.517-13.241H1141.966z"/>
	
		<path fill="none" stroke="#E09E5E" stroke-width="2.1602" stroke-linecap="round" stroke-linejoin="round" stroke-miterlimit="10" d="
		M1164.265,626.642c1.332,6.231,6.963,13.634,6.438,14.691c-0.846,1.701-4.317,1.687-6.438,1.01"/>
	<g>
		
			<path fill="none" stroke="#000000" stroke-width="3.0899" stroke-linecap="round" stroke-linejoin="round" stroke-miterlimit="10" d="
			M1197.146,611.553h-32.879c0,0-0.46,21.242,13.507,21.242c18.1,0,21.338-10.621,21.338-16.45
			C1199.111,614.039,1198.921,611.553,1197.146,611.553z"/>
		
			<path fill="none" stroke="#000000" stroke-width="2.1602" stroke-linecap="round" stroke-linejoin="round" stroke-miterlimit="10" d="
			M1156.015,612.918c1.254-1.076,2.96-1.752,4.573-1.393c1.096,0.244,2.06,0.95,2.732,1.849"/>
		
			<path fill="none" stroke="#000000" stroke-width="3.4563" stroke-linecap="round" stroke-linejoin="round" stroke-miterlimit="10" d="
			M1114.32,611.553h41.139c0,0,0.575,21.242-16.9,21.242c-26.268,0-26.698-11.151-26.698-16.45
			C1111.861,613.942,1112.099,611.553,1114.32,611.553z"/>
	</g>
	
		<line fill="none" stroke="#00233F" stroke-width="3.6398" stroke-linecap="round" stroke-linejoin="round" stroke-miterlimit="10" x1="1164.265" y1="598.269" x2="1185.935" y2="602.527"/>
	
		<line fill="none" stroke="#00233F" stroke-width="3.6398" stroke-linecap="round" stroke-linejoin="round" stroke-miterlimit="10" x1="1145.3" y1="598.269" x2="1115.52" y2="602.527"/>
	
		<rect x="1098.375" y="919.659" transform="matrix(-1 -4.426160e-11 4.426160e-11 -1 2299.7378 1854.2926)" fill="#002542" width="102.988" height="14.975"/>
	<g>
		<g>
			<polygon fill="#FDC78B" points="1108.623,1492.344 1133.2,1241.318 1087.649,1236.701 1093.862,1486.988 			"/>
		</g>
		<g>
			<polygon fill="#FDC78B" points="1131.412,1486.988 1137.827,1239.36 1182.72,1242.016 1146.172,1492.344 			"/>
		</g>
		<polygon fill="#FDC78B" points="1180.483,1535.313 1146.329,1492.344 1131.568,1486.988 1128.889,1492.701 1162.41,1539.206 
			1182.911,1537.313 		"/>
		<path fill="#003263" d="M1128.106,1492.599l-3.163,6.103c-1.957,3.776-1.435,8.36,1.321,11.599l3.209,3.772l3.563,26.062
			l3.374-0.047c0,0,1.44-24.001,1.62-23.826c0.1,0.097,18.035,10.458,20.061,29.663l41.09,4.296l-0.042-3.019l-18.657-11.89
			c0,0-15.186,0.002-17.038-1.601c-2.939-2.544-21.595-35.68-23.889-36.775C1134.042,1494.306,1128.314,1492.626,1128.106,1492.599z
			"/>
		<polygon fill="#FDC78B" points="1142.776,1535.313 1108.623,1492.344 1093.862,1486.988 1091.183,1492.701 1124.704,1539.206 
			1145.204,1537.313 		"/>
		<path fill="#003263" d="M1090.399,1492.599l-3.163,6.103c-1.957,3.776-1.435,8.36,1.321,11.599l3.209,3.772l3.563,26.062
			l3.374-0.047c0,0,1.44-24.001,1.62-23.826c0.1,0.097,18.035,10.458,20.061,29.663l41.09,4.296l-0.042-3.019l-18.657-11.89
			c0,0-15.186,0.002-17.038-1.601c-2.939-2.544-21.595-35.68-23.889-36.775C1096.336,1494.306,1090.607,1492.626,1090.399,1492.599z
			"/>
		<g>
			<g>
				<path fill="#00466C" d="M1200.685,934.634l18.534,54.174c6.434,18.806,7.974,38.94,4.476,58.505l-36.206,202.531l-104.809,1.469
					l-26.857-193.625c-3.399-24.506,1.052-49.459,12.714-71.278l31.365-51.776H1200.685z"/>
			</g>
		</g>
	</g>
	<g>
		<path fill="#FDC88B" d="M1083.711,924.403c5.699-4.514,9.962-7.891,15.662-12.405c1.774-0.113,23.251-1.362,28.965-1.694
			c0.74-0.043,1.34,0.577,1.284,1.316l-0.168,2.221c-0.045,0.591-0.505,1.064-1.094,1.126l-3.264,0.34l3.903,0.637
			c0.636,0.104,1.056,0.711,0.919,1.341c-0.417,1.913-1.28,5.725-1.931,7.615c-0.341,0.989-0.703,2.015-1.439,2.758
			c-0.85,0.858-2.072,1.214-3.241,1.519c-7.637,1.99-16.623,4.384-23.085,6.833c-1.581,5.444-2.26,7.481-6.983,10.617
			c-4.38,2.908-14.408,2.374-17.956-1.505"/>
	</g>
	<path fill="#1D667E" d="M928.731,849.578l57.194,11.388l-5.07,10.211l-41.368,18.737
		C939.487,889.914,921.859,871.39,928.731,849.578z"/>
	<g>
		<g>
			<path fill="#1D667E" d="M1169.573,831.272c-12.098-0.08-22.976,4.173-34.472,7.214c-4.893,1.294-9.923,2.003-14.96,1.168
				c-7.489-1.242-14.216-5.165-19.817-10.17c-0.331-0.295-0.819,0.187-0.489,0.489c9.05,8.276,20.527,12.507,32.659,9.819
				c5.383-1.193,10.567-3.159,15.849-4.715c6.962-2.051,13.99-3.204,21.23-3.678
				C1169.654,831.393,1169.656,831.272,1169.573,831.272L1169.573,831.272z"/>
		</g>
	</g>
	<g>
		<g>
			
				<line fill="none" stroke="#53767A" stroke-width="3.1507" stroke-linecap="round" stroke-linejoin="round" stroke-miterlimit="10" x1="668.063" y1="1694.638" x2="697.916" y2="1694.638"/>
			
				<line fill="none" stroke="#53767A" stroke-width="3.1507" stroke-linecap="round" stroke-linejoin="round" stroke-miterlimit="10" x1="850.808" y1="1565.407" x2="975.096" y2="1565.407"/>
			
				<line fill="none" stroke="#53767A" stroke-width="3.1507" stroke-linecap="round" stroke-linejoin="round" stroke-miterlimit="10" x1="210.761" y1="1640.872" x2="492.373" y2="1640.872"/>
			
				<line fill="none" stroke="#53767A" stroke-width="3.1507" stroke-linecap="round" stroke-linejoin="round" stroke-miterlimit="10" x1="1896.017" y1="1565.407" x2="2020.305" y2="1565.407"/>
			
				<line fill="none" stroke="#53767A" stroke-width="3.1507" stroke-linecap="round" stroke-linejoin="round" stroke-miterlimit="10" x1="749.091" y1="1694.638" x2="929.739" y2="1694.638"/>
			
				<line fill="none" stroke="#53767A" stroke-width="3.1507" stroke-linecap="round" stroke-linejoin="round" stroke-miterlimit="10" x1="1968.371" y1="1694.638" x2="2108.229" y2="1694.638"/>
			
				<line fill="none" stroke="#53767A" stroke-width="3.1507" stroke-linecap="round" stroke-linejoin="round" stroke-miterlimit="10" x1="2133.816" y1="1694.638" x2="2146.61" y2="1694.638"/>
			
				<line fill="none" stroke="#53767A" stroke-width="3.1507" stroke-linecap="round" stroke-linejoin="round" stroke-miterlimit="10" x1="1226.041" y1="1694.638" x2="1333.842" y2="1694.638"/>
			
				<line fill="none" stroke="#53767A" stroke-width="3.1507" stroke-linecap="round" stroke-linejoin="round" stroke-miterlimit="10" x1="1363.907" y1="1694.638" x2="1571.913" y2="1694.638"/>
		</g>
		<g>
			<polygon fill="#3294B6" points="912.952,1565.407 930.01,1565.407 933.376,1102.942 916.318,1102.942 			"/>
			<polygon fill="#3294B6" points="1939.924,1565.407 1922.866,1565.407 1916.684,1102.942 1933.742,1102.942 			"/>
			<polygon fill="#B66729" points="2069.838,1249.987 761.121,1249.987 850.768,1072.818 1978.875,1072.818 			"/>
			<polygon fill="#3294B6" points="838.647,1694.638 855.705,1694.638 853.858,1261.613 836.799,1261.613 			"/>
			<rect x="1999.364" y="1261.613" fill="#3294B6" width="17.058" height="433.025"/>
			<rect x="761.121" y="1249.987" fill="#90531E" width="1308.716" height="11.626"/>
		</g>
	</g>
	<g>
		<g>
			<path fill="#6BD49C" d="M488.228,516.691c-1.796,0.514-6.875,3.464-6.875,3.464c-0.228,11.334,2.47,22.712,7.74,32.748h18.93
				c6.059-17.956,6.578-37.118,3.832-55.911l-5.481-2.059c0,0,4.401-4.128,4.386-4.488c-0.336-7.877-8.862-21.563-15.85-27.439
				c-7.623,10.482-15.563,41.767-14.05,52.336C483.316,515.791,485.772,516.241,488.228,516.691z"/>
		</g>
		<g>
			<path fill="#73E4A8" d="M515.433,552.902c2.079-1.853,6.899-6.816,14.746-18.593l-2.929-6.509l6.834,1.302
				c0,0,15.666-26.36,15.666-54.998l-26.731,22.78v6.834h-4.881c0,0-17.115,25.79-17.162,49.183H515.433z"/>
		</g>
		<g>
			<path fill="#73E4A8" d="M481.374,552.902h14.068c0.125-23.174-8.706-38.914-8.706-38.914l-5.18,3.212l0.914-7.596
				c0,0-13.406-27.391-35.811-35.5c-4.254,19.483,5.191,39.618,5.191,39.618l6.834-1.302l-2.929,6.509
				C465.175,533.065,478.072,548.895,481.374,552.902z"/>
		</g>
		<g>
			
				<rect x="455.004" y="553.058" transform="matrix(-1 -4.489754e-11 4.489754e-11 -1 994.7442 1125.4097)" fill="#D5D8EE" stroke="#001B43" stroke-width="2" stroke-linecap="round" stroke-miterlimit="10" width="84.736" height="19.294"/>
			<polygon fill="#A6C7EA" stroke="#001B43" stroke-width="2" stroke-linecap="round" stroke-miterlimit="10" points="
				466.734,630.451 528.01,630.451 535.518,572.352 459.226,572.352 			"/>
		</g>
	</g>
	<g>
		<path fill="#4F9ED1" stroke="#001B43" stroke-width="2" stroke-linecap="round" stroke-miterlimit="10" d="M806.855,657.355
			H91.632c-4.002,0-7.246-3.244-7.246-7.246v-12.413c0-4.002,3.244-7.246,7.246-7.246h715.224c4.002,0,7.246,3.244,7.246,7.246
			v12.413C814.101,654.111,810.857,657.355,806.855,657.355z"/>
		
			<rect x="174.91" y="657.355" fill="#4F9ED1" stroke="#001B43" stroke-width="2" stroke-linecap="round" stroke-miterlimit="10" width="16.36" height="47.303"/>
		
			<rect x="699.848" y="657.355" fill="#4F9ED1" stroke="#001B43" stroke-width="2" stroke-linecap="round" stroke-miterlimit="10" width="16.36" height="47.303"/>
	</g>
	<g>
		<g>
			<path fill="#001B43" stroke="#001B43" stroke-width="2" stroke-linecap="round" stroke-miterlimit="10" d="M186.807,501.778
				c-2.202,0-4.012,1.939-4.012,4.299l-16.476,119.729h183.917l16.476-119.729c0-2.36-1.788-4.299-4.002-4.299H186.807z"/>
		</g>
	</g>
	<g>
		<g>
			<g>
				<path fill="#FFF6A0" stroke="#00466C" stroke-width="2" stroke-miterlimit="10" d="M170.331,506.795
					c-2.202,0-4.012,1.939-4.012,4.299v114.712c0,2.36,1.81,4.288,4.012,4.288h175.903c1.469,0,2.813-0.876,3.527-2.25
					c0.321-0.621,0.475-1.318,0.475-2.039V511.094c0-2.36-1.788-4.299-4.002-4.299H226.372l-3.908-8.986
					c-0.662-1.519-2.09-2.494-3.651-2.494h-32.731c-1.531,0-2.968,0.975-3.64,2.494l-3.889,8.986H170.331z"/>
			</g>
		</g>
	</g>
	<g>
		
			<rect x="569.092" y="447.774" fill="#E86D6F" stroke="#00466C" stroke-width="2" stroke-miterlimit="10" width="51.913" height="182.677"/>
		
			<rect x="575.915" y="459.677" fill="#FFFFFF" stroke="#001B43" stroke-width="2" stroke-linecap="round" stroke-miterlimit="10" width="38.268" height="28.38"/>
		<path fill="none" stroke="#001B43" stroke-width="2" stroke-linecap="round" stroke-miterlimit="10" d="M599.993,619.812h-9.888
			c-7.837,0-14.19-6.353-14.19-14.19l0,0c0-7.837,6.353-14.19,14.19-14.19h9.888c7.837,0,14.19,6.353,14.19,14.19l0,0
			C614.183,613.459,607.83,619.812,599.993,619.812z"/>
	</g>
	<g>
		
			<rect x="621.005" y="447.774" fill="#FFF6A0" stroke="#00466C" stroke-width="2" stroke-miterlimit="10" width="51.913" height="182.677"/>
		
			<rect x="627.828" y="459.677" fill="#FFFFFF" stroke="#001B43" stroke-width="2" stroke-linecap="round" stroke-miterlimit="10" width="38.268" height="28.38"/>
		<path fill="none" stroke="#001B43" stroke-width="2" stroke-linecap="round" stroke-miterlimit="10" d="M651.906,619.812h-9.888
			c-7.837,0-14.19-6.353-14.19-14.19l0,0c0-7.837,6.353-14.19,14.19-14.19h9.888c7.837,0,14.19,6.353,14.19,14.19l0,0
			C666.096,613.459,659.743,619.812,651.906,619.812z"/>
	</g>
	<g>
		
			<rect x="697.791" y="443.835" transform="matrix(0.958 -0.2868 0.2868 0.958 -123.086 230.0602)" fill="#73E4A8" width="51.913" height="182.677"/>
		
			<rect x="685.9" y="458.479" transform="matrix(0.958 -0.2868 0.2868 0.958 -105.9454 222.0672)" fill="#FFFFFF" stroke="#001B43" stroke-width="2" stroke-linecap="round" stroke-miterlimit="10" width="38.268" height="28.38"/>
		<path fill="none" stroke="#001B43" stroke-width="2" stroke-linecap="round" stroke-miterlimit="10" d="M751.629,611.065
			l-9.473,2.836c-7.508,2.248-15.416-2.016-17.664-9.524v0c-2.248-7.508,2.016-15.416,9.524-17.664l9.473-2.836
			c7.508-2.248,15.416,2.016,17.664,9.524l0,0C763.401,600.909,759.137,608.817,751.629,611.065z"/>
	</g>
	<circle fill="#05B0B7" cx="2332.882" cy="448.765" r="5.543"/>
	<circle fill="#05B0B7" cx="2656.975" cy="890.761" r="5.543"/>
	<circle fill="#05B0B7" cx="2654.185" cy="448.765" r="5.543"/>
	<circle fill="#05B0B7" cx="2332.882" cy="890.761" r="5.543"/>
</g>
<g id="Layer_3">
	<g>
		<rect x="855.283" y="1192.576" fill="#D0D4D9" width="260.582" height="13.272"/>
		<path fill="#D0D4D9" d="M1115.865,1048.989c0-3.312-2.53-5.997-5.652-5.997H860.935c-3.121,0-5.652,2.685-5.652,5.997v143.587
			h260.582V1048.989z"/>
		<g>
			<circle fill="#202530" cx="985.925" cy="1048.246" r="3.224"/>
			<circle fill="#090E1A" cx="985.925" cy="1048.246" r="2.527"/>
			<g>
				<circle fill="#848689" cx="985.008" cy="1047.044" r="0.75"/>
			</g>
		</g>
		<polygon fill="#484F5E" points="862.649,1053.186 862.649,1192.584 863.301,1192.584 1043.996,1053.186 		"/>
		<polygon fill="#2E3440" points="1108.549,1053.186 1043.996,1053.186 863.301,1192.584 1108.549,1192.584 		"/>
		<g>
			<path fill="#FFFFFF" d="M1131.568,1214.558H840.281c-1.068,0-1.934-0.866-1.934-1.934v-4.842c0-1.068,0.866-1.934,1.934-1.934
				h291.287c1.068,0,1.934,0.866,1.934,1.934v4.842C1133.503,1213.692,1132.637,1214.558,1131.568,1214.558z"/>
			<path fill="#2E3440" d="M1004.504,1210.147h-37.157c-1.719,0-3.113-1.394-3.113-3.113v-1.187h43.382v1.187
				C1007.616,1208.753,1006.223,1210.147,1004.504,1210.147z"/>
		</g>
	</g>
	<g>
		<path fill="#D0D4D9" d="M1447.907,1061.995v16.034c0,9.906,8.031,17.936,17.936,17.936h388.77c9.905,0,17.935-8.03,17.935-17.936
			v-16.034H1447.907z"/>
		<path fill="#D0D4D9" d="M1872.549,841.47c0-5.087-4.123-9.21-9.21-9.21h-406.222c-5.086,0-9.21,4.123-9.21,9.21v220.525h424.642
			V841.47z"/>
		<g>
			<circle fill="#ADB0B5" cx="1660.228" cy="840.399" r="4.282"/>
			<circle fill="#090E1A" cx="1660.228" cy="840.399" r="3.356"/>
			<g>
				<circle fill="#848689" cx="1659.011" cy="838.803" r="0.996"/>
			</g>
		</g>
		<polygon fill="#2E3440" points="1707.337,847.917 1459.91,1060.636 1459.91,1062.007 1860.627,1062.007 1860.627,847.917 		"/>
		<polygon fill="#484F5E" points="1459.91,847.917 1459.91,1060.636 1707.337,847.917 		"/>
		<path fill="#2E3440" d="M1665.761,1082.311h-11.065c-1.006,0-1.821-0.815-1.821-1.821v-3.021c0-1.006,0.815-1.821,1.821-1.821
			h11.065c1.005,0,1.821,0.815,1.821,1.821v3.021C1667.582,1081.496,1666.767,1082.311,1665.761,1082.311z"/>
		<polygon fill="#D0D4D9" points="1704.472,1135.5 1615.985,1135.5 1625.622,1095.965 1697.47,1095.965 		"/>
		<polygon fill="#A1A4A8" points="1697.47,1095.964 1625.622,1095.964 1622.796,1107.556 1699.523,1107.556 		"/>
		<path fill="#FFFFFF" d="M1722.38,1147.033h-124.222c-3.185,0-5.767-2.582-5.767-5.767l0,0c0-3.185,2.582-5.767,5.767-5.767
			h124.222c3.185,0,5.767,2.582,5.767,5.767l0,0C1728.146,1144.451,1725.565,1147.033,1722.38,1147.033z"/>
	</g>
	<g>
		<path fill="#00466C" d="M1475.873,1343.278h-171.996c-29.666,0-55.479-20.298-62.476-49.127l-31.644-130.386
			c0-23.401,18.971-42.372,42.372-42.372h281.299c21.255,0,38.486,17.231,38.486,38.486l-33.67,134.7
			C1531.09,1323.199,1505.374,1343.278,1475.873,1343.278z"/>
		<path fill="#013451" d="M1533.428,1121.393h-143.059v221.885h85.505c29.501,0,55.217-20.079,62.37-48.699l33.67-134.7
			C1571.913,1138.623,1554.683,1121.393,1533.428,1121.393z"/>
		<g>
			<path fill="#ADB5BA" d="M1416.445,1289.61h-51.219c-7.773,0-14.075-6.302-14.075-14.075v-51.219
				c0-7.773,6.302-14.075,14.075-14.075h51.219c7.773,0,14.075,6.302,14.075,14.075v51.219
				C1430.52,1283.309,1424.218,1289.61,1416.445,1289.61z"/>
			<g>
				<g>
					<circle fill="#474E5D" cx="1361.787" cy="1220.151" r="2.775"/>
					<circle fill="#474E5D" cx="1419.778" cy="1220.151" r="2.775"/>
				</g>
				<g>
					<circle fill="#474E5D" cx="1361.787" cy="1279.984" r="2.775"/>
					<circle fill="#474E5D" cx="1419.778" cy="1279.984" r="2.775"/>
				</g>
			</g>
		</g>
		<path fill="#00466C" d="M1251.865,1404.221c-7.237,0-13.827,11.505-13.827,24.927c0,13.422,20.987,31.958,153.784,31.958
			s153.784-12.783,153.784-31.319c0-18.535-7.961-25.566-16.645-25.566s-88.29,12.01-137.139,12.01
			S1267.062,1404.221,1251.865,1404.221z"/>
		<path fill="#013451" d="M1391.822,1449.884c-119.769,0-148.58-15.077-153.082-27.882c-0.413,2.291-0.702,4.664-0.702,7.146
			c0,13.422,20.986,31.958,153.784,31.958c132.796,0,153.784-12.783,153.784-31.319c0-2.542-0.177-4.824-0.458-6.945
			C1541.572,1439.036,1514.129,1449.884,1391.822,1449.884z"/>
		<path fill="#262B33" d="M1394.98,1449.884h-8.29c-9.345,0-16.921-7.576-16.921-16.922v-179.37c0-9.345,7.576-16.921,16.921-16.921
			h8.29c9.345,0,16.921,7.576,16.921,16.921v179.37C1411.901,1442.308,1404.325,1449.884,1394.98,1449.884z"/>
		<path fill="#262B33" d="M1452.246,1459.061h-120.895v0c0,7.5,6.08,13.58,13.58,13.58h93.735
			C1446.166,1472.641,1452.246,1466.561,1452.246,1459.061L1452.246,1459.061z"/>
		<rect x="1375.718" y="1472.641" fill="#262B33" width="30.235" height="146.163"/>
		<path fill="#262B33" d="M1391.822,1618.804l-12.765-21.981l-98.628,41.579c-6.715,2.831-10.516,9.78-9.571,16.77h-0.004v14.189
			h32.918v-12.387L1391.822,1618.804z"/>
		<path fill="#262B33" d="M1387.354,1618.804l12.765-21.981l98.628,41.579c6.714,2.831,10.516,9.78,9.571,16.77h0.004v14.189
			h-32.918v-12.387L1387.354,1618.804z"/>
		<circle fill="#474E5D" cx="1390.835" cy="1683.121" r="11.518"/>
		<rect x="1379.568" y="1600.731" fill="#262B33" width="22.534" height="70.872"/>
		<circle fill="#474E5D" cx="1286.737" cy="1681.999" r="12.639"/>
		<circle fill="#474E5D" cx="1493.624" cy="1681.999" r="12.639"/>
	</g>
</g>
</svg>
